<svg xmlns="http://www.w3.org/2000/svg" viewBox="0 0 18 18">
  <defs>
    <style>
      .a {
        fill: #ffce00;
      }
    </style>
  </defs>
  <path class="a" d="M9,0H5.3A4.6,4.6,0,0,0,3.1.5a5.4,5.4,0,0,0-1.6,1,3.9,3.9,0,0,0-1,1.6A4.6,4.6,0,0,0,.1,5.3,29.5,29.5,0,0,0,0,9a29.5,29.5,0,0,0,.1,3.7,4.6,4.6,0,0,0,.4,2.2,3.9,3.9,0,0,0,1,1.6,5.4,5.4,0,0,0,1.6,1,6.2,6.2,0,0,0,2.2.4h7.4a6.2,6.2,0,0,0,2.2-.4,5.4,5.4,0,0,0,1.6-1,5.4,5.4,0,0,0,1-1.6,6.2,6.2,0,0,0,.4-2.2A29.5,29.5,0,0,0,18,9a29.5,29.5,0,0,0-.1-3.7,6.2,6.2,0,0,0-.4-2.2,5.4,5.4,0,0,0-1-1.6,5.4,5.4,0,0,0-1.6-1A4.6,4.6,0,0,0,12.7.1ZM9,1.6h3.6a4.6,4.6,0,0,1,1.7.3,1.7,1.7,0,0,1,1,.7,1.7,1.7,0,0,1,.7,1,4.6,4.6,0,0,1,.3,1.7A27.6,27.6,0,0,1,16.4,9a27.6,27.6,0,0,1-.1,3.6,4.6,4.6,0,0,1-.3,1.7,3.6,3.6,0,0,1-.7,1,1.7,1.7,0,0,1-1,.7,4.6,4.6,0,0,1-1.7.3H5.3A4.5,4.5,0,0,1,3.7,16a2.6,2.6,0,0,1-1.1-.7,3.6,3.6,0,0,1-.7-1,8.9,8.9,0,0,1-.3-1.7V5.3a9.1,9.1,0,0,1,.3-1.6,3,3,0,0,1,.7-1.1A2,2,0,0,1,3.7,2a3.5,3.5,0,0,1,1.6-.4ZM9,4.1a4.7,4.7,0,0,0-3.9,7.3,3.9,3.9,0,0,0,3.3,2h.7a4,4,0,0,0,3.7-2.1A4.7,4.7,0,0,0,9,4.1ZM9,12A2.9,2.9,0,0,1,6,9,2.9,2.9,0,0,1,9,6a2.9,2.9,0,0,1,3,3A2.9,2.9,0,0,1,9,12Zm5.9-7.8a1.1,1.1,0,1,1-2.2,0h0a1.1,1.1,0,0,1,2.2,0Z"/>
</svg>
